<svg width="83" height="83" viewBox="0 0 83 83" fill="none" xmlns="http://www.w3.org/2000/svg">
<path fill-rule="evenodd" clip-rule="evenodd" d="M19.8266 7.06526C24.0354 2.88068 30.9659 3.62422 34.49 8.33447L38.8544 14.1583C41.7248 17.9901 41.4689 23.3436 38.0624 26.7293L37.2393 27.5524C37.146 27.8979 37.1365 28.2608 37.2117 28.6107C37.4296 30.0217 38.6088 33.0097 43.5473 37.9205C48.4858 42.8313 51.4946 44.0072 52.9263 44.2285C53.2871 44.3011 53.6597 44.2904 54.0157 44.1974L55.4267 42.7933C58.4562 39.7846 63.1042 39.2208 66.8531 41.2578L73.4585 44.8545C79.1198 47.9255 80.5481 55.6168 75.9139 60.2268L70.9996 65.1099C69.4503 66.6489 67.3683 67.9319 64.8299 68.1706C58.5703 68.755 43.9866 68.008 28.6558 52.7671C14.3486 38.5396 11.6027 26.1311 11.2534 20.0167C11.0805 16.925 12.5399 14.3105 14.4005 12.4637L19.8266 7.06526ZM30.34 11.4435C28.5866 9.10222 25.3219 8.91547 23.4821 10.7449L18.0525 16.1399C16.9113 17.2743 16.3648 18.5262 16.434 19.7228C16.7107 24.5817 18.924 35.7763 32.3147 49.0909C46.3624 63.0557 59.3346 63.4741 64.3492 63.0038C65.3729 62.9104 66.3896 62.3778 67.3407 61.4337L72.2515 56.5471C74.2504 54.562 73.8112 50.9446 70.9823 49.4091L64.3769 45.8159C62.5509 44.8268 60.4136 45.1519 59.0856 46.473L57.5121 48.0396L55.6792 46.1998C57.5121 48.0396 57.5086 48.0431 57.5052 48.0431L57.5017 48.05L57.4913 48.0603L57.4671 48.0811L57.4153 48.1295C57.2693 48.265 57.112 48.3877 56.9449 48.4961C56.6683 48.6794 56.3017 48.8834 55.8417 49.0529C54.908 49.4022 53.6699 49.5889 52.1413 49.3538C49.1429 48.8938 45.1693 46.8499 39.8884 41.6002C34.611 36.3504 32.5498 32.401 32.0864 29.4061C31.8478 27.8775 32.038 26.6394 32.3908 25.7057C32.5849 25.1802 32.8629 24.6897 33.2138 24.2532L33.3245 24.1321L33.3729 24.0803L33.3937 24.0595L33.4041 24.0491L33.411 24.0422L34.407 23.0531C35.8871 21.5764 36.0946 19.1314 34.7009 17.2673L30.34 11.4435Z" fill="#E5769F"/>
</svg>
