<svg width="180" height="180" viewBox="0 0 180 180" fill="none" xmlns="http://www.w3.org/2000/svg">
<path d="M64.0828 31.6424C69.743 32.5853 73.0188 33.377 80.2062 35.7402C86.7347 30.6517 97.0657 26.2804 106.836 26.5504C123.701 27.1143 138.832 38.8181 143.293 51.8959C147.131 63.1494 144.801 77.368 138.184 90.6936C132.319 102.681 119.555 117.434 107.29 124.254C100.681 127.85 94.4167 130.351 85.7078 131.587C83.0581 137.174 80.8253 143.121 78.7412 147.022C91.5029 146.159 103.927 142.893 114.348 137.224C126.787 130.455 137.899 119.432 146.145 106.531C146.194 106.537 146.237 106.541 146.287 106.546C150.574 99.6402 150.853 98.4224 154.036 91.5789C160.016 77.2175 162.181 61.5336 157.268 47.1294C150.526 27.3621 130.123 12.0688 107.056 11.6701C88.019 11.4321 73.4576 21.3887 64.0828 31.6424ZM55.3852 37.5071C42.8203 38.2852 30.6106 42.8439 22.9324 51.0715C14.3051 60.3176 8.8186 73.2287 6.9968 86.5069C5.17501 99.785 7.02493 113.799 15.358 124.346C23.6282 134.815 35.6748 141.251 48.8356 144.551C53.106 137.5 53.7451 135.868 55.8826 130.956C43.7544 128.505 33.2279 123.146 26.9445 115.193C22.0373 108.982 20.1909 98.9722 21.6253 88.5143C23.0607 78.0553 27.7836 67.5165 33.7279 61.1459C36.7467 57.9101 43.9773 54.3572 51.5521 52.9035C56.8621 52.0457 66.8756 52.5927 71.1573 55.1767C75.311 57.9417 77.4763 62.8021 77.9706 63.9418C83.1744 67.6114 89.4966 71.5504 93.7276 73.2252C93.5824 66.0586 92.2187 59.1915 88.8708 53.0434C85.7384 47.2904 81.0299 43.3916 75.6422 40.9166L75.6429 40.9159C70.6507 38.2862 62.9708 36.7552 55.3841 37.5075L55.3852 37.5071ZM54.1934 58.9373C54.4546 62.7114 55.4685 66.4907 57.4569 70.1416C61.8244 78.1615 69.0444 84.0154 77.4309 88.6127L77.4302 88.6148C84.5353 92.4455 85.7271 92.6107 93.0301 95.4998L93.0336 95.5013C103.429 98.9096 113.25 101.452 122.764 103.195C127.749 96.4617 128.341 95.0962 131.349 89.6832C119.069 87.6382 105.805 84.5353 95.0952 80.4477C86.6201 77.2056 83.3179 75.1004 78.8231 71.9311C74.9929 68.5304 70.811 65.283 69.4083 60.6294C64.6432 59.6538 58.9335 58.6958 54.1927 58.937L54.1934 58.9373ZM160.393 92.9229C157.111 99.8828 156.472 101.855 153.291 107.204C160.997 107.852 165.944 108.007 165.944 108.007C170.056 108.183 173.519 104.961 173.64 100.846C173.76 96.731 170.492 93.3124 166.376 93.2474C166.376 93.2474 164.051 93.1595 160.393 92.9229ZM76.0061 95.0287C74.1259 102.573 71.4906 110.376 68.5188 117.786C66.7301 122.247 64.8531 126.504 62.9958 130.513C59.8528 137.547 59.3807 139.235 55.0814 146.437C51.6308 152.911 49.1646 157.023 49.1646 157.023C46.9709 160.515 48.0635 165.127 51.5911 167.264C55.1183 169.402 59.7122 168.235 61.7924 164.673C68.67 152.767 74.0507 142.635 79.4943 129.781C80.4365 127.628 81.3464 125.462 82.2238 123.282C85.0778 116.165 87.7265 108.625 89.7697 101.013C83.7749 98.6611 81.7907 98.0743 76.0061 95.0287Z" fill="#D4843A"/>
</svg>
