<svg width="79" height="79" viewBox="0 0 79 79" fill="none" xmlns="http://www.w3.org/2000/svg">
<path fill-rule="evenodd" clip-rule="evenodd" d="M57.9596 69.1251L49.816 25.708L13.1666 29.0392V58.5918C13.1666 62.2784 13.1666 64.1218 13.8842 65.5306C14.5154 66.7693 15.5224 67.7763 16.7611 68.4075C18.17 69.1251 20.0133 69.1251 23.7 69.1251H57.9596ZM44.4375 49.4738C44.4375 56.5773 37.3933 61.5674 34.3222 63.4075C33.8976 63.6622 33.4118 63.7967 32.9166 63.7967C32.4215 63.7967 31.9357 63.6622 31.5111 63.4075C28.44 61.5674 21.3958 56.5773 21.3958 49.4705C21.3958 42.5021 26.9785 37.8543 32.9166 37.8543C39.0622 37.8543 44.4375 42.5021 44.4375 49.4738Z" fill="#E5769F"/>
<path d="M13.8842 13.4695C13.1666 14.8783 13.1666 16.7217 13.1666 20.4083V22.4294L72.3837 17.0443C72.3212 15.4379 72.1533 14.3648 71.699 13.4695C71.0679 12.2308 70.0608 11.2237 68.8221 10.5926C67.4133 9.875 65.57 9.875 61.8833 9.875H23.7C20.0133 9.875 18.17 9.875 16.7611 10.5926C15.5224 11.2237 14.5154 12.2308 13.8842 13.4695ZM72.4166 23.6539L56.4027 25.1088L64.6516 69.1085C66.6003 69.0658 67.8215 68.9176 68.8221 68.4074C70.0608 67.7763 71.0679 66.7692 71.699 65.5305C72.4166 64.1217 72.4166 62.2783 72.4166 58.5917V23.6539Z" fill="#EB679E"/>
<path d="M32.9167 52.6666C34.7346 52.6666 36.2083 51.1929 36.2083 49.3749C36.2083 47.557 34.7346 46.0833 32.9167 46.0833C31.0987 46.0833 29.625 47.557 29.625 49.3749C29.625 51.1929 31.0987 52.6666 32.9167 52.6666Z" fill="#E5769F"/>
</svg>
