<svg width="180" height="204" viewBox="0 0 180 204" fill="none" xmlns="http://www.w3.org/2000/svg">
<path d="M64.0828 31.6424C69.743 32.5853 73.0188 33.377 80.2062 35.7402C86.7347 30.6517 97.0657 26.2804 106.836 26.5504C123.701 27.1143 138.832 38.8181 143.293 51.8959C147.131 63.1494 144.801 77.368 138.184 90.6936C132.319 102.681 119.555 117.434 107.29 124.254C100.681 127.85 94.4167 130.351 85.7078 131.587C83.0581 137.174 80.8253 143.121 78.7412 147.022C91.5029 146.159 103.927 142.893 114.348 137.224C126.787 130.455 137.899 119.432 146.145 106.531C146.194 106.537 146.237 106.541 146.287 106.546C150.574 99.6402 150.853 98.4224 154.036 91.5789C160.016 77.2175 162.181 61.5336 157.268 47.1294C150.526 27.3621 130.123 12.0688 107.056 11.6701C88.019 11.4321 73.4576 21.3887 64.0828 31.6424ZM55.3852 37.5071C42.8203 38.2852 30.6106 42.8439 22.9324 51.0715C14.3051 60.3176 8.8186 73.2287 6.9968 86.5069C5.17501 99.785 7.02493 113.799 15.358 124.346C23.6282 134.815 35.6748 141.251 48.8356 144.551C53.106 137.5 53.7451 135.868 55.8826 130.956C43.7544 128.505 33.2279 123.146 26.9445 115.193C22.0373 108.982 20.1909 98.9722 21.6253 88.5143C23.0607 78.0553 27.7836 67.5165 33.7279 61.1459C36.7467 57.9101 43.9773 54.3572 51.5521 52.9035C56.8621 52.0457 66.8756 52.5927 71.1573 55.1767C75.311 57.9417 77.4763 62.8021 77.9706 63.9418C83.1744 67.6114 89.4966 71.5504 93.7276 73.2252C93.5824 66.0586 92.2187 59.1915 88.8708 53.0434C85.7384 47.2904 81.0299 43.3916 75.6422 40.9166L75.6429 40.9159C70.6507 38.2862 62.9708 36.7552 55.3841 37.5075L55.3852 37.5071ZM54.1934 58.9373C54.4546 62.7114 55.4685 66.4907 57.4569 70.1416C61.8244 78.1615 69.0444 84.0154 77.4309 88.6127L77.4302 88.6148C84.5353 92.4455 85.7271 92.6107 93.0301 95.4998L93.0336 95.5013C103.429 98.9096 113.25 101.452 122.764 103.195C127.749 96.4617 128.341 95.0962 131.349 89.6832C119.069 87.6382 105.805 84.5353 95.0952 80.4477C86.6201 77.2056 83.3179 75.1004 78.8231 71.9311C74.9929 68.5304 70.811 65.283 69.4083 60.6294C64.6432 59.6538 58.9335 58.6958 54.1927 58.937L54.1934 58.9373ZM160.393 92.9229C157.111 99.8828 156.472 101.855 153.291 107.204C160.997 107.852 165.944 108.007 165.944 108.007C170.056 108.183 173.519 104.961 173.64 100.846C173.76 96.731 170.492 93.3124 166.376 93.2474C166.376 93.2474 164.051 93.1595 160.393 92.9229ZM76.0061 95.0287C74.1259 102.573 71.4906 110.376 68.5188 117.786C66.7301 122.247 64.8531 126.504 62.9958 130.513C59.8528 137.547 59.3807 139.235 55.0814 146.437C51.6308 152.911 49.1646 157.023 49.1646 157.023C46.9709 160.515 48.0635 165.127 51.5911 167.264C55.1183 169.402 59.7122 168.235 61.7924 164.673C68.67 152.767 74.0507 142.635 79.4943 129.781C80.4365 127.628 81.3464 125.462 82.2238 123.282C85.0778 116.165 87.7265 108.625 89.7697 101.013C83.7749 98.6611 81.7907 98.0743 76.0061 95.0287Z" fill="#D4843A"/>
<path d="M32.6094 190.273C33.5078 190.273 34.3281 190.052 35.0703 189.609C35.8125 189.167 36.4049 188.574 36.8477 187.832C37.2904 187.077 37.5117 186.25 37.5117 185.352C37.5117 184.44 37.2904 183.62 36.8477 182.891C36.4049 182.148 35.8125 181.556 35.0703 181.113C34.3281 180.658 33.5078 180.43 32.6094 180.43C31.6979 180.43 30.8711 180.658 30.1289 181.113C29.3867 181.556 28.7943 182.148 28.3516 182.891C27.9089 183.62 27.6875 184.44 27.6875 185.352C27.6875 186.25 27.9089 187.077 28.3516 187.832C28.7943 188.574 29.3867 189.167 30.1289 189.609C30.8711 190.052 31.6979 190.273 32.6094 190.273ZM37.5117 177.051V167.324H42.2188V185.352C42.2188 187.656 41.4831 189.688 40.0117 191.445C39.1263 192.526 38.0391 193.385 36.75 194.023C35.474 194.648 34.0938 194.961 32.6094 194.961C30.8385 194.961 29.224 194.531 27.7656 193.672C26.3203 192.799 25.1615 191.641 24.2891 190.195C23.4297 188.737 23 187.122 23 185.352C23 183.594 23.4297 181.986 24.2891 180.527C25.1615 179.069 26.3203 177.91 27.7656 177.051C29.224 176.191 30.8385 175.762 32.6094 175.762C34.0938 175.762 35.4805 176.074 36.7695 176.699C37.069 176.842 37.3164 176.96 37.5117 177.051ZM55.8906 190.547C56.8542 190.547 57.7201 190.312 58.4883 189.844C59.2695 189.375 59.8945 188.757 60.3633 187.988C60.832 187.207 61.0664 186.335 61.0664 185.371C61.0664 184.434 60.832 183.574 60.3633 182.793C59.8945 181.999 59.2695 181.367 58.4883 180.898C57.7201 180.43 56.8542 180.195 55.8906 180.195C54.9531 180.195 54.0872 180.43 53.293 180.898C52.5117 181.367 51.8867 181.999 51.418 182.793C50.9622 183.574 50.7344 184.434 50.7344 185.371C50.7344 186.335 50.9622 187.207 51.418 187.988C51.8867 188.757 52.5117 189.375 53.293 189.844C54.0872 190.312 54.9531 190.547 55.8906 190.547ZM61.8867 193.301C61.5612 193.483 61.0794 193.763 60.4414 194.141C59.1914 194.87 57.6745 195.234 55.8906 195.234C54.0938 195.234 52.4466 194.792 50.9492 193.906C49.4648 193.021 48.2734 191.836 47.375 190.352C46.4896 188.854 46.0469 187.194 46.0469 185.371C46.0469 183.561 46.4896 181.914 47.375 180.43C48.2734 178.945 49.4648 177.76 50.9492 176.875C52.4466 175.977 54.0938 175.527 55.8906 175.527C57.3359 175.527 58.7161 175.833 60.0312 176.445C61.3594 177.057 62.4857 177.91 63.4102 179.004C64.1784 179.928 64.7513 180.924 65.1289 181.992C65.5065 183.047 65.7409 184.134 65.832 185.254L66.6914 194.961H61.9844L61.8867 193.301ZM75.6953 194.961H71.0078V176.328H75.6953V194.961ZM73.3516 175.254C72.6094 175.254 71.9714 174.993 71.4375 174.473C70.9167 173.952 70.6562 173.314 70.6562 172.559C70.6562 171.816 70.9167 171.185 71.4375 170.664C71.9714 170.13 72.6094 169.863 73.3516 169.863C74.0938 169.863 74.7253 170.13 75.2461 170.664C75.7799 171.185 76.0469 171.816 76.0469 172.559C76.0469 173.314 75.7799 173.952 75.2461 174.473C74.7253 174.993 74.0938 175.254 73.3516 175.254ZM84.7578 176.797C84.9792 176.693 85.2591 176.562 85.5977 176.406C86.4831 175.99 87.5898 175.781 88.918 175.781C90.2331 175.781 91.457 176.055 92.5898 176.602C93.7357 177.135 94.7188 177.865 95.5391 178.789C97.0104 180.456 97.7461 182.396 97.7461 184.609V194.961H93.0781V184.609C93.0781 183.477 92.668 182.507 91.8477 181.699C91.0273 180.879 90.0508 180.469 88.918 180.469C88.293 180.469 87.7135 180.599 87.1797 180.859C86.6458 181.107 86.1836 181.445 85.793 181.875C85.1029 182.656 84.7578 183.568 84.7578 184.609V194.961H80.0703V175.781H84.7578V176.797ZM112.707 194.961C111.21 194.961 109.816 194.648 108.527 194.023C107.251 193.385 106.171 192.526 105.285 191.445C103.827 189.701 103.098 187.669 103.098 185.352V180.723H99.7969V176.035H103.098V167.324H107.785V176.035H117.062V180.723H107.785V185.352C107.785 186.263 108.007 187.09 108.449 187.832C108.892 188.574 109.484 189.167 110.227 189.609C110.969 190.052 111.796 190.273 112.707 190.273C113.41 190.273 114.068 190.137 114.68 189.863C115.292 189.59 116.158 188.861 117.277 187.676L120.578 190.996C119.068 192.585 117.714 193.646 116.516 194.18C115.331 194.701 114.061 194.961 112.707 194.961ZM135.383 193.906C135.161 193.997 134.875 194.128 134.523 194.297C133.651 194.714 132.551 194.922 131.223 194.922C129.908 194.922 128.677 194.655 127.531 194.121C126.385 193.587 125.402 192.852 124.582 191.914C123.111 190.26 122.375 188.314 122.375 186.074V175.762H127.082V186.074C127.082 187.233 127.486 188.223 128.293 189.043C129.113 189.85 130.09 190.254 131.223 190.254C131.848 190.254 132.427 190.13 132.961 189.883C133.495 189.635 133.951 189.297 134.328 188.867C135.031 188.047 135.383 187.116 135.383 186.074V175.762H140.051L140.07 193.828C140.07 194.688 139.947 195.527 139.699 196.348C139.074 198.366 137.909 200.033 136.203 201.348C134.497 202.676 132.59 203.34 130.48 203.34C129.23 203.34 128.052 203.118 126.945 202.676C125.839 202.233 124.491 201.27 122.902 199.785L126.223 196.484C127.798 197.93 129.217 198.652 130.48 198.652C131.379 198.652 132.199 198.431 132.941 197.988C133.684 197.546 134.276 196.96 134.719 196.23C135.148 195.527 135.37 194.753 135.383 193.906ZM146.945 195.352C146.177 195.352 145.52 195.078 144.973 194.531C144.439 193.984 144.172 193.327 144.172 192.559C144.172 191.803 144.439 191.152 144.973 190.605C145.52 190.059 146.177 189.785 146.945 189.785C147.714 189.785 148.371 190.059 148.918 190.605C149.465 191.152 149.738 191.803 149.738 192.559C149.738 193.327 149.465 193.984 148.918 194.531C148.371 195.078 147.714 195.352 146.945 195.352Z" fill="#4C3016"/>
</svg>
